<svg t="1739792393683" class="icon" viewBox="0 0 1024 1024" version="1.1" xmlns="http://www.w3.org/2000/svg" p-id="4300" width="1em" height="1em"><path d="M551.743593 0c187.108373 0 410.521355 87.131063 410.521355 295.463669a188.78397 188.78397 0 0 1-183.757178 167.559737A178.171853 178.171853 0 0 1 603.687111 335.119474a258.041995 258.041995 0 0 1 21.782766-167.559737 306.634318 306.634318 0 0 0-234.583632 234.583631L380.274129 451.294224l-4.46826 22.341299a344.614525 344.614525 0 0 0 132.930724 328.417084c17.873039 13.404779 27.926623 19.548636 32.394883 41.889934a96.067582 96.067582 0 0 1-8.936519 60.880038v8.936519h8.936519a223.412982 223.412982 0 0 0 35.187545-145.218439c0-142.425776-131.81366-254.132267-111.706492-400.467771a239.610424 239.610424 0 0 1 117.850349-160.298814h4.468259a319.480565 319.480565 0 0 0-74.284816 171.469464 422.809069 422.809069 0 0 0 51.943518 199.396086A394.323914 394.323914 0 0 1 624.352812 837.798684c96.067582-79.311609 111.706491-208.891139 121.760075-322.83176 0 0 0-5.585325 4.46826-5.585324 13.404779 0 22.341298 18.990104 29.043688 25.692493 55.853246 74.843349 111.706491 142.425776 173.145061 212.242333l13.404779 15.638909 12.287714 15.638909a513.849859 513.849859 0 0 1-411.63842 245.195748A507.706002 507.706002 0 0 1 45.154655 538.98382 521.110781 521.110781 0 0 1 547.833865 0z" fill="#1296db" p-id="4301"></path></svg>